<svg width="200" height="200" viewBox="0 0 200 200" fill="none" xmlns="http://www.w3.org/2000/svg">
<path d="M54.1105 113.303L140.433 117.575L138.296 160.746L51.9738 156.474L54.1105 113.303ZM177.227 65.2148L175.273 46.4648L170.352 46.9727L167.266 12.8906L26.0742 25.4687L29.1797 59.8047L22.7539 60.4688L24.707 79.2188L30.8594 78.5937L33.9258 112.656L175.117 100.078L172.031 65.7812L177.227 65.2148V65.2148ZM63.8867 80.1953C56.0547 80.8984 49.1211 75.1562 48.418 67.3828C47.7148 59.6094 53.4961 52.7344 61.3477 52.0508C69.1797 51.3477 76.1133 57.0898 76.8164 64.8633C77.5 72.6367 71.7188 79.5117 63.8867 80.1953V80.1953ZM139.844 73.6719C132.012 74.375 125.078 68.6328 124.375 60.8594C123.672 53.0859 129.453 46.2109 137.305 45.5273C145.137 44.8242 152.07 50.5664 152.773 58.3398C153.477 66.1133 147.676 72.9883 139.844 73.6719V73.6719ZM87.1875 184.98L86.875 163.105L62.6367 161.914L62.9883 187.109L87.1875 184.98ZM135.566 180.723L131.719 165.332L106.445 164.082L111.152 182.871L135.566 180.723Z" fill="white"/>
</svg>
