<svg width="1024" height="1024" viewBox="0 0 1024 1024" fill="none" xmlns="http://www.w3.org/2000/svg">
<g clip-path="url(#clip0_3_117)">
<path d="M515.477 997.201H515.435C433.999 997.201 338.803 996.364 232.494 994.712C233.219 971.487 234.246 949.339 235.544 928.881C236.842 908.423 238.453 889.06 240.323 871.348C242.193 853.635 244.386 837.063 246.832 822.113C249.278 807.163 252.05 793.382 255.071 781.177C257.742 770.109 261.071 759.21 265.04 748.54C268.159 740.072 272.077 731.922 276.741 724.201C278.694 721.034 280.865 718.007 283.239 715.143C285.337 712.613 287.658 710.277 290.171 708.161C292.438 706.258 294.907 704.612 297.535 703.253C300.005 701.985 302.624 701.033 305.331 700.419L309.145 699.577C325.242 696.05 339.736 693.399 352.523 691.059C389.161 684.355 413.365 679.926 428.958 663.791C430.974 661.696 432.848 659.468 434.567 657.123C436.301 654.752 437.901 652.286 439.358 649.735C442.329 644.469 444.863 638.968 446.934 633.286C451.244 621.74 454.275 609.225 457.208 597.122C459.194 588.921 461.07 581.178 463.297 573.811C464 571.719 465.161 569.811 466.696 568.227C468.629 566.192 470.807 564.407 473.18 562.912C476.102 561.047 479.161 559.408 482.331 558.01C486.049 556.358 489.852 554.909 493.725 553.668C497.859 552.328 502.304 551.106 506.941 550.038C511.64 548.954 516.558 548.02 521.558 547.262C532.067 545.668 542.681 544.865 553.309 544.859C556.601 544.859 559.903 544.94 563.119 545.099C572.559 545.596 581.942 546.87 591.175 548.909C599.618 550.736 607.916 553.186 615.999 556.238C623.282 559.025 629.588 562.115 634.238 565.175C638.949 568.277 641.821 571.263 642.543 573.809C643.911 578.635 645.42 586.576 647.331 596.637C650.932 615.58 655.865 641.524 663.333 664.122C665.284 670.025 667.336 675.469 669.435 680.305C671.497 685.143 673.895 689.83 676.61 694.332C678.975 698.284 681.785 701.951 684.985 705.261C687.757 708.144 691.044 710.481 694.675 712.151C707.677 717.855 725.987 719.483 745.372 721.206C761.522 722.641 778.221 724.122 792.521 728.117C796.001 729.074 799.419 730.244 802.757 731.62C805.908 732.92 808.945 734.484 811.834 736.297C814.598 738.036 817.164 740.075 819.483 742.377C821.789 744.683 823.79 747.276 825.436 750.093C830.767 759.245 839.243 775.648 848.692 795.093C858.906 816.118 869.702 839.534 879.076 861.027C884.33 873.07 889.173 884.566 893.466 895.195C898.12 906.723 902.159 917.295 905.466 926.617C912.943 947.702 916.735 962.495 916.735 970.585C916.703 971.2 916.548 971.803 916.279 972.356C916.009 972.91 915.631 973.404 915.167 973.808C913.78 975.07 912.191 976.089 910.466 976.823C906.306 978.755 899.98 980.573 891.66 982.229C883.341 983.885 872.796 985.424 860.315 986.804C847.834 988.183 833.07 989.443 816.43 990.546C783.151 992.754 740.964 994.435 691.039 995.537C641.115 996.639 582.049 997.201 515.477 997.201Z" fill="white"/>
<path d="M970.202 1024.32H-0.608643C1.63782 1017.03 4.13091 1009.8 6.54287 1002.81L6.59843 1002.65C6.90787 1001.76 7.21541 1000.86 7.52141 999.976C14.3113 980.233 22.179 960.878 31.089 942.001C46.8269 908.756 65.9007 877.203 88.0145 847.832C110.111 818.443 135.187 791.429 162.841 767.224C170.351 760.662 177.924 754.405 185.347 748.628C193.198 742.518 201.143 736.742 208.96 731.46C217.17 725.912 225.506 720.731 233.731 716.062C242.329 711.182 251.071 706.711 259.715 702.776C268.418 698.781 277.339 695.28 286.434 692.289C295.532 689.308 304.827 686.969 314.251 685.29C325.345 683.339 334.37 682.318 342.655 682.079C345.559 680.359 348.874 679.463 352.246 679.486C354.843 679.507 357.42 679.959 359.871 680.823C362.422 681.714 364.847 682.934 367.085 684.452L367.492 684.729H367.506L369.427 685.11C369.529 685.132 369.62 685.19 369.684 685.273C369.747 685.356 369.78 685.459 369.775 685.563C369.783 685.673 369.753 685.782 369.689 685.871C369.626 685.961 369.533 686.025 369.427 686.053C369.395 686.056 369.365 686.065 369.336 686.079C370.561 687.043 371.723 688.085 372.813 689.2C374.423 690.765 375.446 692.839 375.71 695.072C375.894 697.08 375.487 699.098 374.538 700.875C377.124 703.289 379.537 705.881 381.761 708.633C383.969 711.365 386.037 714.209 387.958 717.152C391.829 723.039 395.327 729.408 398.704 735.566L398.946 736.008C399.193 736.458 399.44 736.908 399.687 737.359C403.538 744.355 408.041 750.97 413.134 757.115C418.24 763.253 423.899 768.905 430.04 774.001C438.388 780.919 447.326 787.086 456.752 792.433C466.294 797.85 476.27 802.455 486.579 806.201C496.923 809.965 507.565 812.849 518.392 814.821C529.171 816.787 540.104 817.785 551.061 817.802C567.373 817.872 583.601 815.459 599.19 810.644C609.708 807.329 619.767 802.697 629.129 796.858C638.535 791.014 647.197 784.044 654.923 776.101C670.913 759.654 681.893 740.032 686.678 719.355C685.438 719.808 684.129 720.043 682.809 720.05C681.646 720.052 680.492 719.852 679.397 719.46C676.901 718.561 674.594 717.201 672.597 715.451C670.646 713.72 668.938 711.73 667.52 709.538C664.592 705.131 662.489 700.015 660.455 695.07C660.153 694.336 659.808 693.505 659.475 692.702L659.266 692.202C657.136 687.147 655.18 682.038 653.448 677.025C651.672 671.876 650.075 666.647 648.701 661.483C647.288 656.127 646.158 650.699 645.315 645.223C644.481 639.863 643.879 634.306 643.525 628.707C643.304 624.378 643.328 620.039 643.597 615.712L643.797 612.13C643.807 611.911 643.817 611.692 643.826 611.473V611.464C643.835 609.982 644.001 608.504 644.321 607.057C644.658 605.62 645.469 604.34 646.622 603.422C646.7 603.356 646.797 603.317 646.898 603.313C646.957 603.314 647.015 603.328 647.067 603.356C649.693 604.62 650.487 607.036 651.328 609.596C651.437 609.929 651.551 610.274 651.668 610.616C652.622 613.403 653.689 616.19 654.722 618.886L654.731 618.908C655.31 620.418 655.907 621.98 656.476 623.524C657.097 625.215 657.709 626.894 658.387 628.755C660.85 635.524 663.397 642.522 666.228 649.316C669.182 656.434 673.184 665.799 677.94 675.119C680.167 679.499 682.52 683.684 684.528 687.201C685.06 688.139 685.572 689.181 686.115 690.284C687.074 692.426 688.25 694.463 689.627 696.362C689.779 695.565 689.993 694.781 690.266 694.017C689.997 694.145 689.735 694.289 689.483 694.448C689.394 694.505 689.291 694.536 689.186 694.536C689.073 694.533 688.964 694.499 688.869 694.44C688.773 694.381 688.695 694.297 688.642 694.198C688.589 694.109 688.562 694.007 688.562 693.903C688.563 693.799 688.593 693.698 688.647 693.61C689.657 691.903 691.136 690.524 692.908 689.639C693.318 689.185 694.498 688.951 696.416 688.951C699.777 689.048 703.127 689.389 706.439 689.972C710.739 690.65 715.74 691.627 721.304 692.876C733.229 695.554 746.795 699.292 759.503 703.394C766.59 705.684 773.423 708.087 779.812 710.537C786.734 713.194 793.158 715.911 798.909 718.621C811.921 724.753 821.512 730.827 827.418 736.673C833.643 742.835 839.758 749.324 845.595 755.96C851.32 762.468 856.937 769.299 862.29 776.263C867.539 783.092 872.676 790.234 877.557 797.489C882.341 804.6 887.016 812.021 891.452 819.547C900.246 834.515 908.224 849.951 915.349 865.786C922.296 881.188 928.713 897.491 934.424 914.243C943.305 940.278 951.821 966.929 960.055 992.703L960.073 992.758L960.103 992.85C963.33 1002.95 966.668 1013.39 969.979 1023.66L970.096 1024.02L970.195 1024.32L970.202 1024.32ZM401.329 700.419C399.811 700.413 398.315 700.054 396.96 699.37C395.586 698.675 394.351 697.733 393.316 696.592C391.151 694.2 389.73 691.227 389.226 688.037C388.756 685.408 389.155 682.697 390.361 680.316C391.003 679.115 391.881 678.057 392.942 677.205C394.173 676.234 395.574 675.503 397.074 675.049C405.993 670.383 414.089 664.282 421.038 656.989C424.563 653.354 427.857 649.501 430.901 645.452C433.9 641.467 436.676 637.317 439.216 633.023C444.71 623.925 449.358 614.34 453.1 604.388C454.786 599.8 456.185 595.049 457.537 590.454L457.544 590.43C459.122 585.064 460.754 579.515 462.851 574.208C462.901 574.092 462.984 573.993 463.088 573.922C463.192 573.851 463.313 573.811 463.439 573.806C463.528 573.805 463.614 573.83 463.689 573.878C463.763 573.927 463.822 573.995 463.858 574.076C466.334 579.335 467.892 584.98 468.465 590.767C469.071 596.771 468.962 602.825 468.142 608.803C467.333 614.858 466.005 620.833 464.173 626.659C462.455 632.19 460.337 637.589 457.838 642.811C455.411 647.864 452.63 652.737 449.514 657.394C446.466 661.933 443.129 666.27 439.523 670.377C432.231 678.576 424.145 686.029 415.383 692.625C412.973 694.468 410.462 696.315 407.919 698.115C406.015 699.555 403.708 700.36 401.324 700.415L401.329 700.419Z" fill="black"/>
<path d="M769.772 289.85C784.645 279.141 762.467 243.906 754.933 233.422C748.38 219.746 741.826 206.069 735.269 192.39C736.066 181.173 725.141 171.197 714.345 174.607C704.953 167.854 689.222 171.087 684.449 181.66C580.597 136.315 400.904 155.179 391.611 295.103C371.522 334.941 351.611 375.123 333.788 416.036C309.059 417.368 297.069 447.487 311.795 466.952C313.754 498.56 333.742 501.061 360.427 499.655C371.144 502.485 382.252 504.017 390.289 512.314C396.397 518.572 400.549 526.508 404.556 534.206C423.044 569.728 446.536 600.457 478.382 625.03C527.901 662.183 594.939 688.858 656.685 670.772C789.436 618.507 815.504 409.634 769.772 289.85Z" fill="white"/>
<path fill-rule="evenodd" clip-rule="evenodd" d="M737.087 159.974C676.892 93.2041 579.455 66.1037 492.723 86.3005C404.462 106.845 338.398 179.094 316.879 266.254C310.945 290.299 308.056 315.502 309.794 340.258C310.569 352.376 312.482 364.394 315.506 376.152C317.64 384.212 320.526 392.795 324.892 400.197C321.807 401.871 318.918 403.885 316.28 406.203C291.849 427.8 294.371 468.268 315.875 490.9C331.469 507.321 356.319 510.754 377.901 509.339C378.622 509.295 379.339 509.194 380.044 509.038C380.554 510.662 381.208 512.248 381.861 513.808C384.11 519.167 386.71 524.409 389.13 529.691C393.373 538.944 398.347 547.857 403.438 556.666L406.146 561.332C416.033 578.404 426.549 597.796 442.645 609.684C450.109 615.188 461.586 620.377 470.631 616.014C475.847 613.498 479.729 607.666 478.082 601.651C476.436 595.635 471.285 592.897 465.743 591.507C449.581 587.472 439.907 569.004 430.584 556.217L429.848 555.219C421.899 544.477 413.418 534.142 404.437 524.252C401.374 520.911 398.198 517.649 395.004 514.415L390.335 509.701C388.938 508.299 387.506 506.925 385.992 505.669C386.379 505.205 386.7 504.689 386.946 504.136C388.737 500.192 388.867 497.492 386.946 493.534C385.312 490.18 381.404 488.476 377.9 488.331C375.889 488.25 373.852 488.197 371.804 488.143C355.632 487.713 338.705 487.263 327.809 473.352C319.508 462.777 316.789 447.955 320.489 435.1C324.515 421.13 336.933 412.402 350.658 409.532C365.915 406.334 380.345 409.689 393.599 417.592C394.292 418.011 394.881 417.212 394.606 416.583C393.319 413.558 391.626 410.723 389.573 408.157L390.593 407.319L390.707 407.466C391.007 407.824 391.426 408.06 391.887 408.131C401.469 409.625 410.396 411.984 418.253 417.566C419.129 418.169 420.005 418.837 420.854 419.545C425.181 423.149 433.089 421.157 432.801 414.592C431.951 394.672 428.146 374.766 426.475 354.902C424.765 334.388 424.197 313.794 424.775 293.217L424.786 292.736C424.799 292.109 424.809 291.474 424.818 290.832C424.917 284.05 425.026 276.517 429.885 271.424C431.795 269.414 440.198 269.138 450.447 268.801C463.991 268.357 480.758 267.806 490.029 263.011C498.277 258.751 496.317 248.189 490.029 243.497C480.304 236.25 472.068 213.435 484.356 201.379C495.728 190.205 514.925 185.306 530.414 182.969L531.95 182.744C559.549 178.802 587.626 182.294 615.401 185.748C625.485 187.003 635.535 188.253 645.505 189.139C656.08 190.096 666.709 190.725 677.335 190.738H678.757C688.972 190.738 699.471 190.596 708.301 185.273C713.253 184.814 717.907 183.36 722.561 181.617C743.671 213.16 758.588 249.526 767.253 286.456C776.273 324.866 777.71 364.692 776.783 404.006C774.874 484.471 765.987 584.042 692.823 633.564C673.687 646.511 652.601 653.641 629.45 654.296C616.412 654.595 603.387 653.288 590.666 650.404C577.608 647.547 565.071 642.043 551.909 640.09C540.98 638.478 534.3 651.727 544.209 658.398C553.868 664.888 565.6 668.184 576.912 671.021L579.895 671.765C592.331 674.851 605.01 676.855 617.79 677.754C641.875 679.466 666.02 675.378 688.208 665.829C726.887 649.225 757.737 614.353 775.096 576.427C796.75 529.099 801.754 476.782 803.204 425.322L803.269 423.036C804.395 380.341 803.175 337.281 794.762 295.295C790.043 271.759 782.788 249.14 771.416 227.949C760.906 208.357 745.573 192.081 727.181 179.828C728.397 179.356 729.612 178.871 730.854 178.413C731.875 179.804 732.931 181.163 734 182.517L736.148 185.227C737.599 187.075 740.775 186.761 742.305 185.227C743.847 183.668 744.108 180.588 742.305 179.055C740.579 177.6 738.879 176.146 737.142 174.73C740.865 170.772 741.323 164.666 737.087 159.974ZM383.471 441.04C365.629 436.301 332.924 427.615 336.427 447.981C336.472 448.133 336.565 448.266 336.693 448.361C336.82 448.456 336.974 448.507 337.133 448.507C337.291 448.507 337.445 448.456 337.573 448.361C337.7 448.266 337.793 448.133 337.838 447.981C339.554 436.844 353.505 444.357 360.744 448.256C361.837 448.844 362.776 449.35 363.498 449.697L364.976 450.393C371.898 453.605 379.159 456.324 385.76 460.115L386.131 460.32C398.332 466.814 405.242 445.012 392.844 443.288L392.529 443.241C390.582 442.929 387.383 442.08 383.469 441.04H383.471Z" fill="black"/>
<path fill-rule="evenodd" clip-rule="evenodd" d="M810.618 365.436C814.226 362.405 820.521 361.687 824.879 361.677C834.82 363.584 830.705 378.772 811.756 369.324C840.233 488.696 657.937 493.787 688.695 380.311C670.29 375.872 650.856 375.511 633.961 383.937C648.545 435.963 600.021 485.983 544.248 473.139C508.228 464.754 484.191 436.762 495.325 395.618C488.255 397.84 475.001 395.99 470.899 390.458C456.72 389.244 442.624 387.512 428.544 385.782C397.002 381.905 365.547 378.039 333.443 380.035C329.077 380.641 329.321 383.725 329.564 386.808C329.807 389.878 330.05 392.946 325.735 393.56C315.814 392.653 319.712 375.845 326.815 373.113C336.782 365.951 422.501 373.057 471.529 385.945C478.036 381.667 487.84 382.973 495.565 384.001C496.809 384.167 497.999 384.325 499.111 384.454C508.769 360.2 539.72 329.965 570.774 335.064C599.224 336.731 623.127 347.997 632.84 380.171C647.67 366.685 674.562 362.33 691.663 372.528C701.148 351.148 717.837 335.068 740.327 327.817C768.886 307.518 801.725 335.356 810.618 365.436ZM788.132 435.496C772.262 451.936 745.767 456.653 724.653 447.837C670.439 425.128 696.976 354.297 738.789 335.273C744.012 333.967 750.989 330.871 757.351 330.168C757.652 330.084 757.971 330.086 758.271 330.174C759.083 330.372 759.939 330.286 760.696 329.93C806.804 335.093 817.301 406.845 788.135 435.497L788.132 435.496ZM535.33 459.67C562.367 470.673 595.46 463.37 613.26 439.702C646.485 396.064 614.607 322.069 537.409 351.151C500.863 375.774 481.919 438.585 535.333 459.674L535.33 459.67ZM497.471 387.262C497.421 387.239 497.371 387.226 497.32 387.203C497.603 387.078 497.885 386.954 498.166 386.827C498.074 387.067 497.972 387.304 497.886 387.544C497.755 387.439 497.616 387.345 497.471 387.262Z" fill="black"/>
<path fill-rule="evenodd" clip-rule="evenodd" d="M556.309 371.54C557.4 357.968 578.017 354.883 580.069 368.316C581.905 380.346 579.745 391.397 574.338 402.228C569.173 412.576 556.192 407.748 555.21 398.326C554.24 389.019 554.928 383.468 555.628 377.813C555.879 375.792 556.131 373.759 556.309 371.54ZM725.252 360.635C720.279 359.179 716.129 361.755 713.255 365.529C712.944 365.941 712.661 366.374 712.409 366.825C703.435 375.092 706.816 391.852 713.875 400.244C718.206 405.391 727.788 403.908 730.753 398.063C736.209 387.298 740.788 365.188 725.252 360.635Z" fill="black"/>
<path d="M661.284 406.929C675.349 437.596 681.626 458.809 680.116 470.567C678.605 482.325 669.155 485.811 651.763 481.023" stroke="black" stroke-width="14.0023" stroke-linecap="round" stroke-linejoin="round"/>
<path fill-rule="evenodd" clip-rule="evenodd" d="M637.701 527.322C637.697 527.242 637.575 527.242 637.579 527.322C637.797 532.915 639.441 538.36 642.354 543.135C642.364 543.145 642.377 543.151 642.391 543.152C642.405 543.153 642.419 543.15 642.431 543.143C642.443 543.136 642.452 543.125 642.457 543.112C642.463 543.099 642.463 543.084 642.46 543.071C639.553 538.317 637.915 532.893 637.701 527.322ZM649.208 550.135C652.159 549.659 655.082 549.018 657.962 548.215C665.163 546.355 672.456 544.471 679.151 547.705C683.563 549.836 685.657 557.123 682.674 561.175C678.118 567.361 673.415 568.385 666.02 568.98C660.479 569.469 654.904 569.414 649.373 568.817L647.966 568.644C638.1 567.368 627.846 564.606 620.202 557.959C618.639 556.598 619.44 553.661 621.446 553.237C630.525 551.319 640.023 551.415 649.211 550.132L649.208 550.135Z" fill="black"/>
<path fill-rule="evenodd" clip-rule="evenodd" d="M708.03 308.89L706.138 309.204C703.984 309.55 701.979 310.521 700.37 311.999C698.799 313.465 697.756 315.411 697.402 317.533C696.885 320.529 697.477 322.65 699.185 325.094C700.374 326.835 702.134 328.105 704.158 328.684C706.266 329.249 708.486 329.242 710.59 328.663C720.538 326.139 730.71 324.612 740.958 324.103C745.731 323.942 750.508 324.118 755.256 324.631L759.347 325.008C763.394 325.456 767.477 325.48 771.529 325.081C771.888 325.041 772.24 324.999 772.588 324.952C772.888 324.758 773.145 324.504 773.344 324.207C773.544 323.91 773.681 323.576 773.748 323.224L773.801 323.065C773.954 322.579 774.101 321.869 772.739 319.344C756.511 304.015 728.651 305.555 708.03 308.89Z" fill="black"/>
<path fill-rule="evenodd" clip-rule="evenodd" d="M554.849 306.764L557.313 306.376C564.927 305.189 574.388 304.084 579.655 310.295C582.448 313.589 583.326 319.636 579.445 322.674C574.362 326.657 568.956 326.43 563.192 326.189C561.214 326.106 559.194 326.022 557.13 326.104C550.536 326.37 543.992 327.374 537.62 329.097C523.497 332.885 511.921 340.042 499.78 347.91C498.187 348.941 496.613 346.894 497.39 345.431C504.55 331.942 518.168 320.994 531.736 314.41C538.977 310.895 546.883 308.011 554.849 306.764Z" fill="black"/>
</g>
<defs>
<clipPath id="clip0_3_117">
<rect width="1024" height="1024" fill="white"/>
</clipPath>
</defs>
</svg>
