<svg xmlns="http://www.w3.org/2000/svg" xmlns:xlink="http://www.w3.org/1999/xlink" width="256" height="256" viewBox="0 0 256 256"><defs><clipPath id="b"><rect width="256" height="256"/></clipPath></defs><g id="a" clip-path="url(#b)"><g fill="#0e1d2d" stroke="#41b883" stroke-width="20"><path d="M49,0h79A128,128,0,0,1,256,128v70a58,58,0,0,1-58,58H58A58,58,0,0,1,0,198V49A49,49,0,0,1,49,0Z" stroke="none"/><path d="M49,10h79A118,118,0,0,1,246,128v70a48,48,0,0,1-48,48H58a48,48,0,0,1-48-48V49A39,39,0,0,1,49,10Z" fill="none"/></g><g transform="translate(-43.519 -94.438)"><path d="M76.416,164.309,161.1,310.472l84.686-145.458v-.705H212.865L161.6,252.372l-51.049-88.054Z" transform="translate(0 -0.034)" fill="#41b883"/><path d="M252.032,164.275l51.032,88.071,51.273-88.071H323.454l-20.182,34.666-20.108-34.674Z" transform="translate(-141.473)" fill="#4169b8"/></g><text transform="translate(134 222)" fill="#41b883" stroke="#41b883" stroke-width="3" font-size="54" font-family="Helvetica-Bold, Helvetica" font-weight="700"><tspan x="0" y="0">&lt;</tspan></text><text transform="translate(172.5 227.5)" fill="#41b883" stroke="#41b883" stroke-width="3" font-size="64" font-family="Helvetica-Condensed, Helvetica"><tspan x="0" y="0">/</tspan></text><text transform="translate(194 222)" fill="#41b883" stroke="#41b883" stroke-width="3" font-size="54" font-family="Helvetica-Bold, Helvetica" font-weight="700"><tspan x="0" y="0">&gt;</tspan></text></g></svg>