<svg xmlns="http://www.w3.org/2000/svg" xmlns:xlink="http://www.w3.org/1999/xlink" width="256" height="256" viewBox="0 0 256 256"><defs><clipPath id="b"><rect width="256" height="256"/></clipPath></defs><g id="a" clip-path="url(#b)"><g transform="translate(256 256) rotate(180)" fill="#090d2e" stroke="#408cff" stroke-width="20"><path d="M128,0H256a0,0,0,0,1,0,0V128A128,128,0,0,1,128,256H0a0,0,0,0,1,0,0V128A128,128,0,0,1,128,0Z" stroke="none"/><path d="M128,10H236a10,10,0,0,1,10,10V128A118,118,0,0,1,128,246H20a10,10,0,0,1-10-10V128A118,118,0,0,1,128,10Z" fill="none"/></g><g transform="translate(0 31)"><g transform="translate(53 87)" fill="#408cff" stroke="#707070" stroke-width="1"><rect width="151" height="21" rx="10.5" stroke="none"/><rect x="0.5" y="0.5" width="150" height="20" rx="10" fill="none"/></g><circle cx="5" cy="5" r="5" transform="translate(171 92)" fill="#fff"/><circle cx="5" cy="5" r="5" transform="translate(186 92)" fill="#fff"/><circle cx="5" cy="5" r="5" transform="translate(156 92)" fill="#fff"/></g></g></svg>