<svg xmlns="http://www.w3.org/2000/svg" xmlns:xlink="http://www.w3.org/1999/xlink" width="256" height="256" viewBox="0 0 256 256"><defs><clipPath id="b"><rect width="256" height="256"/></clipPath></defs><g id="a" clip-path="url(#b)"><g fill="#20232a" stroke="#61dafb" stroke-width="20"><path d="M49,0h79A128,128,0,0,1,256,128v70a58,58,0,0,1-58,58H58A58,58,0,0,1,0,198V49A49,49,0,0,1,49,0Z" stroke="none"/><path d="M49,10h79A118,118,0,0,1,246,128v70a48,48,0,0,1-48,48H58a48,48,0,0,1-48-48V49A39,39,0,0,1,49,10Z" fill="none"/></g><path d="M156.917,118.5q-3.039-1.013-6.079-1.914c.338-1.388.638-2.777.938-4.165,4.615-22.363,1.576-40.336-8.668-46.264-9.868-5.666-25.965.225-42.25,14.408-1.613,1.388-3.189,2.852-4.69,4.315-1.013-.976-2.064-1.951-3.114-2.889C75.982,66.834,58.872,60.456,48.628,66.422,38.8,72.125,35.871,89.047,40,110.21c.413,2.1.863,4.165,1.388,6.266-2.4.675-4.765,1.426-6.979,2.214C14.371,125.631,0,136.588,0,147.919c0,11.707,15.309,23.451,36.134,30.58,1.688.563,3.377,1.126,5.1,1.613-.563,2.251-1.051,4.465-1.5,6.754-3.94,20.825-.863,37.334,8.968,43,10.131,5.853,27.166-.15,43.751-14.671,1.313-1.163,2.627-2.364,3.94-3.64,1.651,1.613,3.377,3.152,5.1,4.653,16.059,13.808,31.931,19.4,41.724,13.733,10.131-5.853,13.433-23.6,9.155-45.214q-.507-2.476-1.126-5.065c1.2-.338,2.364-.713,3.527-1.088,21.65-7.167,37.334-18.761,37.334-30.655C192.112,136.55,177.328,125.519,156.917,118.5ZM106.149,86.646c13.958-12.157,26.978-16.922,32.907-13.508,6.341,3.64,8.78,18.348,4.8,37.672-.263,1.276-.525,2.514-.863,3.752a192.085,192.085,0,0,0-25.252-3.977,189.578,189.578,0,0,0-15.984-19.924C103.223,89.273,104.649,87.959,106.149,86.646ZM57.371,157.6c1.726,3.3,3.49,6.566,5.366,9.793,1.914,3.264,3.865,6.529,5.928,9.718a169.907,169.907,0,0,1-17.41-2.814,175.275,175.275,0,0,1,6.116-16.7Zm0-18.986c-2.364-5.591-4.353-11.069-6-16.36,5.4-1.2,11.144-2.176,17.11-2.927-1.989,3.114-3.94,6.3-5.778,9.531-1.839,3.189-3.64,6.454-5.328,9.756Zm4.277,9.493c2.476-5.178,5.178-10.243,8.03-15.234s5.928-9.831,9.155-14.6c5.628-.413,11.369-.638,17.223-.638s11.632.225,17.223.638q4.784,7.092,9.118,14.521t8.142,15.159q-3.771,7.767-8.1,15.309c-2.852,4.99-5.891,9.831-9.08,14.634-5.591.413-11.407.6-17.3.6s-11.594-.188-17.11-.525q-4.9-7.148-9.23-14.634c-2.889-4.99-5.553-10.056-8.067-15.234Zm67.765,19.211c1.914-3.3,3.715-6.641,5.478-10.018a174.18,174.18,0,0,1,6.341,16.622,164.819,164.819,0,0,1-17.635,3C125.623,173.772,127.537,170.545,129.413,167.318Zm5.4-28.7c-1.764-3.3-3.565-6.6-5.441-9.831q-2.758-4.784-5.741-9.456a172.662,172.662,0,0,1,17.223,3A166.053,166.053,0,0,1,134.816,138.614ZM96.131,96.4a164.766,164.766,0,0,1,11.106,13.433c-7.429-.338-14.9-.338-22.326,0C88.589,104.994,92.379,100.492,96.131,96.4Zm-43.525-23c6.3-3.677,20.3,1.576,35.045,14.634.938.825,1.876,1.726,2.852,2.627a190.63,190.63,0,0,0-16.1,19.924,197.79,197.79,0,0,0-25.215,3.9c-.488-1.914-.9-3.865-1.313-5.816-3.527-18.161-1.2-31.856,4.728-35.271Zm-9.193,98.908c-1.576-.45-3.114-.938-4.653-1.463-7.992-2.514-17.072-6.491-23.639-11.707a16.837,16.837,0,0,1-7.054-11.219c0-6.866,11.857-15.647,28.967-21.613,2.139-.75,4.315-1.426,6.491-2.064a199.519,199.519,0,0,0,9.193,23.864A205.1,205.1,0,0,0,43.413,172.308ZM87.163,209.08A68.677,68.677,0,0,1,66,222.325a16.607,16.607,0,0,1-13.245.488c-5.966-3.452-8.442-16.7-5.065-34.52.413-2.1.863-4.2,1.388-6.266A187.709,187.709,0,0,0,74.556,185.7,198.013,198.013,0,0,0,90.765,205.74c-1.2,1.163-2.4,2.289-3.6,3.339Zm9.193-9.118c-3.827-4.127-7.654-8.705-11.369-13.62,3.6.15,7.317.225,11.069.225,3.865,0,7.654-.075,11.407-.263A161.817,161.817,0,0,1,96.356,199.962ZM145.4,211.219a16.676,16.676,0,0,1-6.191,11.744c-5.966,3.452-18.686-1.051-32.419-12.832-1.576-1.351-3.152-2.814-4.765-4.315A185.618,185.618,0,0,0,117.856,185.7a184.964,184.964,0,0,0,25.59-3.94c.375,1.538.713,3.077,1.013,4.578a68.4,68.4,0,0,1,.938,24.877Zm6.829-40.336c-1.051.338-2.1.675-3.189.976a190.614,190.614,0,0,0-9.568-23.939,189.653,189.653,0,0,0,9.193-23.6c1.951.563,3.827,1.163,5.628,1.764,17.485,6,29.755,14.934,29.755,21.763C184.045,155.2,170.95,164.692,152.226,170.883Zm-56.17-40a17.185,17.185,0,1,1-17.185,17.185,17.182,17.182,0,0,1,17.185-17.185" transform="translate(31.5 -10.525)" fill="#d5f3fb" stroke="#d5f3fb" stroke-width="3"/></g></svg>