<svg xmlns="http://www.w3.org/2000/svg" xmlns:xlink="http://www.w3.org/1999/xlink" width="256" height="256" viewBox="0 0 256 256"><defs><clipPath id="b"><rect width="256" height="256"/></clipPath></defs><g id="a" clip-path="url(#b)"><g fill="#2e0918" stroke="#ff40bf" stroke-width="20"><path d="M49,0h79A128,128,0,0,1,256,128v70a58,58,0,0,1-58,58H58A58,58,0,0,1,0,198V49A49,49,0,0,1,49,0Z" stroke="none"/><path d="M49,10h79A118,118,0,0,1,246,128v70a48,48,0,0,1-48,48H58a48,48,0,0,1-48-48V49A39,39,0,0,1,49,10Z" fill="none"/></g><text transform="translate(52 177)" fill="#ffd9f2" font-size="128" font-family="SourceHanSansCN-Bold, Source Han Sans CN" font-weight="700"><tspan x="0" y="0">JS</tspan></text></g></svg>