<svg xmlns="http://www.w3.org/2000/svg" xmlns:xlink="http://www.w3.org/1999/xlink" width="400pt" height="400pt" viewBox="0 0 400 400">
  <defs>
    <clipPath id="clip-safari-pinned-tab">
      <rect width="400" height="400"/>
    </clipPath>
  </defs>
  <g id="safari-pinned-tab" clip-path="url(#clip-safari-pinned-tab)">
    <path id="山茶树和葡萄树" d="M182.448,277.183,364,286.169,359.5,376.964l-181.549-8.985ZM441.381,176.046l-4.108-39.434-10.351,1.068L420.431,66,123.483,92.454l6.531,72.214-13.514,1.4,4.108,39.434,12.939-1.314L140,275.823l296.948-26.454-6.49-72.132ZM203.009,207.552A29.718,29.718,0,1,1,230.2,175.307,29.9,29.9,0,0,1,203.009,207.552Zm159.75-13.72a29.718,29.718,0,1,1,27.193-32.246A29.9,29.9,0,0,1,362.759,193.833Zm-110.744,234.1-.657-46.007L200.38,379.42l.739,52.99Zm101.749-8.955-8.092-32.369-53.154-2.629,9.9,39.516Z" transform="translate(-79.381 -49.038)"/>
  </g>
</svg>
